<svg width="25" height="17" viewBox="0 0 25 17" fill="none" xmlns="http://www.w3.org/2000/svg">
<path fill-rule="evenodd" clip-rule="evenodd" d="M11.0252 8.54175L11.0272 9.0001C11.0429 10.8181 11.1525 12.4401 11.3415 13.4681C11.3415 13.4866 11.5477 14.5061 11.679 14.8454C11.8852 15.3359 12.258 15.7523 12.7254 16.0161C13.0996 16.2043 13.4921 16.2998 13.9031 16.2998C14.2261 16.2848 14.7588 16.1223 15.139 15.986L15.455 15.8649C17.5477 15.0336 21.5481 12.3174 23.0803 10.6563L23.1932 10.5402L23.6973 9.99612C24.0151 9.57977 24.1831 9.07074 24.1831 8.52321C24.1831 8.03272 24.0334 7.54223 23.7341 7.14584C23.6444 7.01742 23.5001 6.85267 23.3716 6.71346L22.8809 6.19983C21.1924 4.48901 17.5364 2.08928 15.6413 1.29415C15.6413 1.27704 14.4637 0.785117 13.9031 0.766582H13.8282C12.9683 0.766582 12.1648 1.25707 11.7539 2.04985C11.6416 2.26658 11.5339 2.69112 11.452 3.06398L11.3048 3.768C11.1368 4.90012 11.0252 6.63681 11.0252 8.54175ZM2.82925 6.56794C1.75465 6.56794 0.883389 7.44769 0.883389 8.53277C0.883389 9.61784 1.75465 10.4976 2.82925 10.4976L7.61767 10.0741C8.46069 10.0741 9.14414 9.38543 9.14414 8.53277C9.14414 7.68153 8.46069 6.99142 7.61767 6.99142L2.82925 6.56794Z" fill="white"/>
</svg>
