<svg width="36" height="36" viewBox="0 0 36 36" fill="none" xmlns="http://www.w3.org/2000/svg">
<path d="M15.255 7.50007C15.4791 7.49931 15.7005 7.54877 15.903 7.64481C16.1054 7.74086 16.2838 7.88105 16.425 8.05508L23.67 17.0551C23.8906 17.3235 24.0112 17.6601 24.0112 18.0076C24.0112 18.355 23.8906 18.6917 23.67 18.9601L16.17 27.9601C15.9154 28.2664 15.5495 28.459 15.1529 28.4956C14.7562 28.5322 14.3613 28.4097 14.055 28.1551C13.7487 27.9005 13.556 27.5346 13.5195 27.138C13.4829 26.7413 13.6054 26.3464 13.86 26.0401L20.565 18.0001L14.085 9.96007C13.9016 9.7399 13.7851 9.47179 13.7492 9.18746C13.7134 8.90314 13.7598 8.6145 13.8829 8.35571C14.006 8.09692 14.2006 7.8788 14.4438 7.72717C14.6869 7.57553 14.9684 7.49673 15.255 7.50007Z" fill="black"/>
</svg>
