<svg width="32" height="32" viewBox="0 0 32 32" fill="none" xmlns="http://www.w3.org/2000/svg">
<path fill-rule="evenodd" clip-rule="evenodd" d="M4.72002 0.399902H4.60002C4.05042 0.399902 3.57762 0.399902 3.16002 0.498302C2.51355 0.652778 1.92246 0.983214 1.45226 1.453C0.982051 1.92278 0.651083 2.51357 0.496024 3.1599C0.400024 3.5775 0.400024 4.0479 0.400024 4.5999V10.5999C0.400024 11.1495 0.400024 11.6223 0.498424 12.0399C0.6529 12.6864 0.983336 13.2775 1.45312 13.7477C1.9229 14.2179 2.51369 14.5488 3.16002 14.7039C3.57762 14.7999 4.04802 14.7999 4.60002 14.7999H10.6C11.1496 14.7999 11.6224 14.7999 12.04 14.7015C12.6865 14.547 13.2776 14.2166 13.7478 13.7468C14.218 13.277 14.549 12.6862 14.704 12.0399C14.8 11.6223 14.8 11.1519 14.8 10.5999V4.5999C14.8 4.0503 14.8 3.5775 14.7016 3.1599C14.5471 2.51343 14.2167 1.92234 13.7469 1.45214C13.2771 0.981929 12.6864 0.650961 12.04 0.495902C11.6224 0.399902 11.152 0.399902 10.6 0.399902H4.72002ZM3.71922 2.8335C3.82242 2.8095 3.98322 2.7999 4.72002 2.7999H10.48C11.2192 2.7999 11.3776 2.8071 11.4808 2.8335C11.6964 2.88506 11.8935 2.99532 12.0503 3.15207C12.207 3.30881 12.3173 3.50591 12.3688 3.7215C12.3928 3.8223 12.4 3.9807 12.4 4.7199V10.4799C12.4 11.2191 12.3928 11.3775 12.3664 11.4807C12.3149 11.6963 12.2046 11.8934 12.0479 12.0501C11.8911 12.2069 11.694 12.3171 11.4784 12.3687C11.38 12.3903 11.2216 12.3999 10.48 12.3999H4.72002C3.98082 12.3999 3.82242 12.3927 3.71922 12.3663C3.50363 12.3147 3.30653 12.2045 3.14979 12.0477C2.99305 11.891 2.88278 11.6939 2.83122 11.4783C2.80962 11.3799 2.80002 11.2215 2.80002 10.4799V4.7199C2.80002 3.9807 2.80722 3.8223 2.83362 3.7191C2.88518 3.50351 2.99544 3.30641 3.15219 3.14967C3.30893 2.99292 3.50603 2.88266 3.72162 2.8311L3.71922 2.8335ZM21.52 0.399902H21.4C20.8504 0.399902 20.3776 0.399902 19.96 0.498302C19.3136 0.652778 18.7225 0.983214 18.2523 1.453C17.7821 1.92278 17.4511 2.51357 17.296 3.1599C17.2 3.5775 17.2 4.0479 17.2 4.5999V10.5999C17.2 11.1495 17.2 11.6223 17.2984 12.0399C17.4529 12.6864 17.7833 13.2775 18.2531 13.7477C18.7229 14.2179 19.3137 14.5488 19.96 14.7039C20.3776 14.7999 20.848 14.7999 21.4 14.7999H27.4C27.9496 14.7999 28.4224 14.7999 28.84 14.7015C29.4865 14.547 30.0776 14.2166 30.5478 13.7468C31.018 13.277 31.349 12.6862 31.504 12.0399C31.6 11.6223 31.6 11.1519 31.6 10.5999V4.5999C31.6 4.0503 31.6 3.5775 31.5016 3.1599C31.3471 2.51343 31.0167 1.92234 30.5469 1.45214C30.0771 0.981929 29.4864 0.650961 28.84 0.495902C28.4224 0.399902 27.952 0.399902 27.4 0.399902H21.52ZM20.5192 2.8335C20.6224 2.8095 20.7832 2.7999 21.52 2.7999H27.28C28.0192 2.7999 28.1776 2.8071 28.2808 2.8335C28.4964 2.88506 28.6935 2.99532 28.8503 3.15207C29.007 3.30881 29.1173 3.50591 29.1688 3.7215C29.1928 3.8223 29.2 3.9807 29.2 4.7199V10.4799C29.2 11.2191 29.1904 11.3775 29.1664 11.4807C29.1149 11.6963 29.0046 11.8934 28.8479 12.0501C28.6911 12.2069 28.494 12.3171 28.2784 12.3687C28.1776 12.3927 28.0192 12.3999 27.28 12.3999H21.52C20.7808 12.3999 20.6224 12.3927 20.5192 12.3663C20.3036 12.3147 20.1065 12.2045 19.9498 12.0477C19.793 11.891 19.6828 11.6939 19.6312 11.4783C19.6096 11.3799 19.6 11.2215 19.6 10.4799V4.7199C19.6 3.9807 19.6072 3.8223 19.6336 3.7191C19.6852 3.50351 19.7954 3.30641 19.9522 3.14967C20.1089 2.99292 20.306 2.88266 20.5216 2.8311L20.5192 2.8335ZM4.60002 17.1999H10.6C11.1496 17.1999 11.6224 17.1999 12.04 17.2983C12.6865 17.4528 13.2776 17.7832 13.7478 18.253C14.218 18.7228 14.549 19.3136 14.704 19.9599C14.8 20.3775 14.8 20.8479 14.8 21.3999V27.3999C14.8 27.9495 14.8 28.4223 14.7016 28.8399C14.5471 29.4864 14.2167 30.0775 13.7469 30.5477C13.2771 31.0179 12.6864 31.3488 12.04 31.5039C11.6224 31.5999 11.152 31.5999 10.6 31.5999H4.60002C4.05042 31.5999 3.57762 31.5999 3.16002 31.5015C2.51355 31.347 1.92246 31.0166 1.45226 30.5468C0.982051 30.077 0.651083 29.4862 0.496024 28.8399C0.400024 28.4223 0.400024 27.9519 0.400024 27.3999V21.3999C0.400024 20.8503 0.400024 20.3775 0.498424 19.9599C0.6529 19.3134 0.983336 18.7223 1.45312 18.2521C1.9229 17.7819 2.51369 17.451 3.16002 17.2959C3.57762 17.1999 4.04802 17.1999 4.60002 17.1999ZM4.72002 19.5999C3.98082 19.5999 3.82242 19.6071 3.71922 19.6335C3.50363 19.6851 3.30653 19.7953 3.14979 19.9521C2.99305 20.1088 2.88278 20.3059 2.83122 20.5215C2.80962 20.6199 2.80002 20.7783 2.80002 21.5199V27.2799C2.80002 28.0191 2.80722 28.1775 2.83362 28.2807C2.88518 28.4963 2.99544 28.6934 3.15219 28.8501C3.30893 29.0069 3.50603 29.1171 3.72162 29.1687C3.82242 29.1927 3.98082 29.1999 4.72002 29.1999H10.48C11.2192 29.1999 11.3776 29.1903 11.4808 29.1663C11.6964 29.1147 11.8935 29.0045 12.0503 28.8477C12.207 28.691 12.3173 28.4939 12.3688 28.2783C12.3928 28.1775 12.4 28.0191 12.4 27.2799V21.5199C12.4 20.7807 12.3928 20.6223 12.3664 20.5191C12.3149 20.3035 12.2046 20.1064 12.0479 19.9497C11.8911 19.7929 11.694 19.6827 11.4784 19.6311C11.38 19.6095 11.2216 19.5999 10.48 19.5999H4.72002ZM21.52 17.1999H21.4C20.8504 17.1999 20.3776 17.1999 19.96 17.2983C19.3136 17.4528 18.7225 17.7832 18.2523 18.253C17.7821 18.7228 17.4511 19.3136 17.296 19.9599C17.2 20.3775 17.2 20.8479 17.2 21.3999V27.3999C17.2 27.9495 17.2 28.4223 17.2984 28.8399C17.4529 29.4864 17.7833 30.0775 18.2531 30.5477C18.7229 31.0179 19.3137 31.3488 19.96 31.5039C20.3776 31.6023 20.8504 31.6023 21.4 31.6023H27.4C27.9496 31.6023 28.4224 31.6023 28.84 31.5039C29.4861 31.349 30.0766 31.0184 30.5464 30.5487C31.0161 30.0789 31.3468 29.4883 31.5016 28.8423C31.6 28.4247 31.6 27.9519 31.6 27.4023V21.3999C31.6 20.8503 31.6 20.3775 31.5016 19.9599C31.3471 19.3134 31.0167 18.7223 30.5469 18.2521C30.0771 17.7819 29.4864 17.451 28.84 17.2959C28.4224 17.1999 27.952 17.1999 27.4 17.1999H21.52ZM20.5192 19.6335C20.6224 19.6095 20.7832 19.5999 21.52 19.5999H27.28C28.0192 19.5999 28.1776 19.6071 28.2808 19.6335C28.4964 19.6851 28.6935 19.7953 28.8503 19.9521C29.007 20.1088 29.1173 20.3059 29.1688 20.5215C29.1928 20.6223 29.2 20.7807 29.2 21.5199V27.2799C29.2 28.0191 29.1904 28.1775 29.1664 28.2807C29.1149 28.4963 29.0046 28.6934 28.8479 28.8501C28.6911 29.0069 28.494 29.1171 28.2784 29.1687C28.1776 29.1927 28.0192 29.1999 27.28 29.1999H21.52C20.7808 29.1999 20.6224 29.1903 20.5192 29.1663C20.3036 29.1147 20.1065 29.0045 19.9498 28.8477C19.793 28.691 19.6828 28.4939 19.6312 28.2783C19.6096 28.1799 19.6 28.0215 19.6 27.2799V21.5199C19.6 20.7807 19.6072 20.6223 19.6336 20.5191C19.6852 20.3035 19.7954 20.1064 19.9522 19.9497C20.1089 19.7929 20.306 19.6827 20.5216 19.6311L20.5192 19.6335Z" fill="black"/>
</svg>
